<?xml version="1.0" standalone="no"?>
<!DOCTYPE svg PUBLIC "-//W3C//DTD SVG 20010904//EN"
 "http://www.w3.org/TR/2001/REC-SVG-20010904/DTD/svg10.dtd">
<svg version="1.0" xmlns="http://www.w3.org/2000/svg"
 width="138.000000pt" height="138.000000pt" viewBox="0 0 138.000000 138.000000"
 preserveAspectRatio="xMidYMid meet">

<g transform="translate(0.000000,138.000000) scale(0.100000,-0.100000)"
fill="#000000" stroke="none">
<path d="M0 690 l0 -690 690 0 690 0 0 690 0 690 -690 0 -690 0 0 -690z m808
615 c78 -16 242 -89 249 -112 2 -6 -30 8 -73 32 -95 54 -182 75 -311 75 -82 0
-112 -5 -181 -29 -46 -16 -108 -46 -139 -66 -30 -20 -57 -34 -60 -31 -10 10
107 78 178 103 126 44 218 51 337 28z m12 -47 c57 -10 200 -74 200 -89 0 -4
-30 7 -67 26 -201 100 -419 85 -608 -44 -16 -12 -34 -21 -39 -21 -16 0 56 50
114 79 132 67 235 80 400 49z m-144 -29 c8 -14 -11 -33 -25 -25 -11 7 -4 36 9
36 5 0 12 -5 16 -11z m-141 -20 c10 -15 -1 -23 -20 -15 -9 3 -13 10 -10 16 8
13 22 13 30 -1z m275 -14 c0 -8 -7 -15 -15 -15 -8 0 -15 7 -15 15 0 8 7 15 15
15 8 0 15 -7 15 -15z m282 -105 c-22 -59 -32 -76 -50 -78 -33 -5 -28 -38 17
-96 22 -28 55 -83 73 -121 30 -63 33 -79 33 -160 0 -85 -2 -95 -42 -178 -50
-105 -55 -142 -18 -159 15 -7 24 -18 23 -27 -4 -20 -50 -26 -80 -10 -15 9 -69
12 -163 12 l-140 -1 130 8 c72 4 131 8 133 9 1 0 2 15 2 32 0 17 16 67 36 111
49 109 62 186 43 263 l-14 59 -75 38 c-108 55 -135 58 -173 20 l-31 -32 17
-47 c32 -91 12 -173 -58 -230 -54 -45 -108 -56 -181 -37 l-59 15 -92 -98 c-51
-54 -92 -104 -93 -112 0 -11 11 -12 50 -8 29 4 50 2 50 -3 0 -6 -22 -10 -49
-10 -45 0 -51 3 -69 34 -11 18 -34 42 -52 52 l-32 19 6 85 c3 47 11 199 17
338 9 200 8 260 -2 283 -10 26 -10 33 5 47 16 16 18 15 36 -7 20 -28 17 -28
155 24 54 21 91 28 165 30 l95 4 -95 -9 c-72 -6 -118 -16 -189 -44 -108 -42
-108 -42 -135 -18 -20 17 -20 17 -4 -8 22 -35 74 -32 168 10 62 29 89 35 160
38 96 4 161 -14 245 -66 49 -31 72 -34 44 -7 -8 8 -39 28 -69 44 -30 17 -51
31 -47 31 12 0 88 -40 118 -63 32 -23 56 -18 61 13 2 15 23 30 78 55 41 19 76
33 77 31 1 -1 -10 -35 -25 -76z m-355 54 c-3 -3 -12 -4 -19 -1 -8 3 -5 6 6 6
11 1 17 -2 13 -5z m193 -10 c0 -9 -5 -14 -12 -12 -18 6 -21 28 -4 28 9 0 16
-7 16 -16z m-547 -9 c1 -5 -6 -11 -15 -13 -11 -2 -18 3 -18 13 0 17 30 18 33
0z m838 -102 c66 -101 89 -176 96 -303 4 -79 1 -124 -11 -179 -16 -70 -67
-185 -101 -226 -22 -27 -17 -14 33 85 72 143 89 281 53 423 -25 95 -61 173
-112 237 -21 27 -39 52 -39 56 0 16 37 -27 81 -93z m-1043 15 c-71 -93 -109
-217 -109 -353 0 -114 17 -190 62 -278 34 -67 33 -88 -1 -30 -91 154 -103 372
-29 548 31 75 86 161 96 151 3 -3 -5 -20 -19 -38z m1036 -88 c63 -120 81 -254
51 -392 -16 -78 -62 -179 -101 -223 -22 -25 -24 -26 -12 -5 8 14 26 45 41 70
109 191 94 437 -38 621 -19 27 -35 52 -35 57 1 16 62 -66 94 -128z m-1014 44
c-62 -99 -91 -201 -91 -314 0 -94 13 -152 57 -247 38 -84 31 -99 -9 -20 -60
120 -78 297 -42 422 18 65 84 195 98 195 5 0 -1 -16 -13 -36z m938 -42 c2 -7
-6 -12 -17 -12 -21 0 -27 11 -14 24 9 9 26 2 31 -12z m58 -113 c10 -17 -13
-36 -27 -22 -12 12 -4 33 11 33 5 0 12 -5 16 -11z m-176 -79 c0 -5 -5 -10 -11
-10 -5 0 -7 5 -4 10 3 6 8 10 11 10 2 0 4 -4 4 -10z m202 -72 c-15 -15 -26 -4
-18 18 5 13 9 15 18 6 9 -9 9 -15 0 -24z m-12 -133 c0 -8 -7 -15 -15 -15 -8 0
-15 7 -15 15 0 8 7 15 15 15 8 0 15 -7 15 -15z m-65 -145 c3 -6 -1 -13 -10
-16 -19 -8 -30 0 -20 15 8 14 22 14 30 1z m-876 -126 c26 -33 26 -50 1 -91
-17 -28 -25 -33 -59 -33 -31 0 -44 6 -60 26 -12 15 -21 37 -21 49 0 12 9 34
21 49 16 20 29 26 59 26 30 0 43 -6 59 -26z m451 -14 c0 -6 -50 -9 -132 -8
l-133 2 115 6 c63 3 123 7 133 8 9 1 17 -2 17 -8z m-267 -117 c157 -76 369
-63 531 33 66 39 87 40 28 2 -137 -91 -292 -119 -455 -82 -88 20 -227 86 -227
107 0 5 16 -1 36 -13 19 -13 59 -34 87 -47z m647 50 c0 -11 -87 -69 -148 -98
-112 -54 -288 -71 -417 -40 -65 15 -197 78 -217 103 -12 14 -10 14 12 2 14 -7
36 -21 50 -30 14 -10 61 -30 105 -45 189 -64 409 -34 556 76 56 42 59 43 59
32z"/>
<path d="M1007 1109 c-29 -15 -38 -25 -35 -42 5 -33 27 -27 66 21 38 46 29 53
-31 21z"/>
<path d="M515 1106 c-22 -8 -67 -26 -100 -40 -73 -31 -108 -33 -135 -6 -13 13
-20 16 -20 7 0 -8 11 -24 25 -37 30 -28 79 -23 134 13 20 13 47 27 61 31 14 4
-4 -10 -40 -31 -53 -31 -75 -37 -117 -37 l-53 0 0 -50 c-1 -28 -7 -172 -14
-321 -8 -148 -11 -273 -7 -277 3 -3 52 37 109 91 l103 96 -16 37 c-53 128 43
268 185 268 28 0 65 -7 82 -16 30 -15 31 -15 64 17 19 18 34 38 34 45 0 12
-64 110 -104 158 -20 24 -34 30 -88 36 l-63 7 50 2 c64 1 144 -20 219 -59 33
-17 62 -28 65 -24 9 9 -26 32 -99 68 -55 26 -78 31 -150 33 -53 2 -100 -3
-125 -11z m28 -23 c-7 -2 -19 -2 -25 0 -7 3 -2 5 12 5 14 0 19 -2 13 -5z"/>
<path d="M1047 1082 c-42 -42 -47 -62 -17 -62 15 0 26 13 41 46 11 26 18 48
16 50 -2 2 -20 -13 -40 -34z"/>
<path d="M734 1038 c14 -18 40 -57 57 -85 17 -29 35 -53 40 -53 20 0 7 41 -27
85 -19 26 -33 49 -30 52 4 4 56 -61 76 -96 11 -21 30 -4 30 29 0 23 -8 33 -46
55 -25 15 -51 24 -59 21 -7 -2 -19 2 -25 10 -7 8 -19 14 -28 14 -11 0 -8 -9
12 -32z"/>
<path d="M906 1018 c-9 -12 -16 -28 -16 -36 0 -18 46 -62 65 -62 23 0 55 37
55 63 0 53 -75 77 -104 35z m82 -29 c4 -31 -20 -53 -47 -44 -47 15 -31 79 18
73 20 -2 27 -9 29 -29z"/>
<path d="M926 993 c-4 -9 0 -23 9 -32 13 -14 17 -14 31 1 9 9 14 24 11 32 -8
21 -43 20 -51 -1z"/>
<path d="M1010 938 c0 -9 5 -20 11 -24 22 -13 78 -113 100 -175 30 -88 22
-168 -25 -276 -20 -45 -35 -92 -35 -105 1 -20 2 -20 6 -3 2 11 22 59 44 107
66 140 62 244 -11 373 -39 68 -89 125 -90 103z"/>
<path d="M822 878 c-35 -33 -61 -65 -60 -70 2 -4 32 21 68 57 35 35 62 67 59
69 -2 3 -33 -23 -67 -56z"/>
<path d="M842 866 c-65 -67 -87 -114 -26 -55 45 43 98 109 92 114 -2 3 -32
-24 -66 -59z"/>
<path d="M990 924 c0 -6 20 -41 45 -78 56 -84 70 -131 69 -231 0 -71 -5 -90
-38 -163 -49 -108 -55 -143 -27 -171 11 -11 30 -21 42 -21 19 0 18 3 -11 30
-28 27 -31 34 -25 66 3 20 23 73 43 117 33 73 37 91 37 163 0 73 -4 87 -38
155 -36 73 -96 155 -97 133z"/>
<path d="M915 900 c-15 -17 -12 -20 47 -47 35 -17 65 -29 67 -27 2 2 -8 21
-23 43 -31 45 -68 57 -91 31z"/>
<path d="M880 862 c0 -5 21 -17 48 -27 26 -10 66 -28 90 -41 24 -13 42 -18 40
-12 -5 15 -113 74 -150 83 -16 4 -28 3 -28 -3z"/>
<path d="M543 819 c-125 -62 -133 -245 -14 -320 88 -56 208 -29 263 58 34 56
33 145 -4 200 -51 77 -159 105 -245 62z m102 -39 c-7 -34 0 -38 26 -14 16 15
17 14 12 -6 -5 -21 -4 -21 17 -10 20 11 22 10 17 -4 -4 -11 -1 -16 10 -16 14
0 14 -2 -3 -15 -18 -14 -18 -14 11 -16 17 -1 36 -2 42 -2 7 1 10 -3 7 -8 -3
-5 -14 -9 -24 -9 -31 0 -32 -18 -3 -28 26 -10 26 -10 5 -11 -20 -1 -21 -4 -11
-22 8 -15 8 -19 0 -15 -6 4 -11 0 -11 -10 0 -13 -3 -14 -15 -4 -17 14 -19 7
-6 -38 12 -40 -5 -44 -20 -4 l-11 27 -13 -25 c-12 -21 -14 -22 -15 -6 0 20 0
20 -15 0 -10 -13 -14 -15 -15 -5 0 11 -5 10 -20 -4 -11 -10 -20 -13 -20 -7 0
6 5 14 10 17 6 3 10 10 10 16 0 5 -18 -2 -40 -16 -45 -28 -51 -23 -17 13 l22
25 -30 -6 c-26 -4 -27 -3 -12 7 16 12 15 14 -6 24 -12 6 -16 11 -8 11 11 1 11
4 0 18 -12 15 -12 16 4 10 9 -3 17 -2 17 3 0 6 -3 10 -7 10 -5 0 -16 12 -27
26 -18 26 -18 26 2 15 30 -16 41 -13 35 9 -4 15 -2 19 10 14 12 -4 14 0 10 18
-4 18 -2 20 6 8 8 -12 12 -10 20 10 l10 25 1 -25 c1 -23 3 -22 21 13 24 45 33
48 24 7z"/>
<path d="M590 691 c-18 -35 -12 -69 16 -88 24 -15 29 -15 53 -2 29 16 39 56
21 89 -15 27 -75 28 -90 1z"/>
<path d="M366 445 c-89 -84 -109 -115 -73 -115 15 0 187 171 187 187 0 28 -21
15 -114 -72z"/>
<path d="M401 416 c-71 -72 -92 -98 -87 -112 6 -16 9 -16 30 7 12 13 55 59 96
102 48 50 70 81 64 87 -6 6 -43 -24 -103 -84z"/>
<path d="M172 284 c-29 -20 -29 -46 0 -42 14 2 24 13 29 31 8 31 3 33 -29 11z"/>
<path d="M220 275 c0 -18 5 -25 20 -25 11 0 20 7 20 15 0 8 -9 19 -20 25 -18
9 -20 8 -20 -15z"/>
<path d="M233 233 c-16 -3 -23 -11 -23 -29 0 -29 20 -31 43 -6 17 19 23 43 10
41 -5 -1 -18 -4 -30 -6z"/>
<path d="M166 221 c-18 -7 -18 -8 0 -26 17 -17 19 -17 22 -2 5 27 -1 35 -22
28z"/>
</g>
</svg>
